:SAMPLES-PER-SECOND 30
:FULLY-SPECIFIED
:DEGREES
97
root  71.9509 40.2861 -2.01651 132.361 -88.3836 -130.944
RightUpLeg  2.34057 -11.4856 -4.08732
RightLeg  9.9924 -1.12094 4.90083
RightFoot  -5.2692 -0.0823118 0.868895
RightToes  5.82063e-011 0 -3.6325e-017
Spine  1.59552 -0.671957 9.35536
Spine1  11.5282 -0.280818 -1.20738
HEad  -21.1179 4.81448 -5.77433
LeftShoulder1  9.26326 -13.0247 -48.9282
LeftArm  -12.228 13.6876 -28.6751
LeftForeArm  28.9701 -32.2944 -5.4701
LeftHand  -0.244104 0.0205437 5.32207
RightShoulder  6.82698 10.6411 41.9993
RightArm  4.95268 -3.87969 27.7998
RightForeArm  -7.37753 24.8499 5.68628
RightHand  -1.19541 2.83636 -16.9942
LeftUpLeg  2.67568 7.66232 7.56986
LeftLeg  6.66027 7.20143 -1.46948
LeftFoot  -8.5976 0.18433 -5.53579
LeftToes  4.36525e-011 -9.98543e-011 1.0027e-011
98
root  71.758 40.2119 -1.7293 100.04 -88.6163 -98.7577
RightUpLeg  2.12012 -13.5125 -4.23262
RightLeg  11.6822 0.110927 4.0268
RightFoot  -6.00762 -0.107577 1.4514
RightToes  5.82063e-011 0 -3.6325e-017
Spine  1.66442 -0.670691 9.10121
Spine1  11.0326 -0.345023 -1.13859
HEad  -20.8472 4.56442 -5.43146
LeftShoulder1  9.25801 -13.0334 -48.8746
LeftArm  -10.5528 14.0991 -29.0303
LeftForeArm  28.0795 -30.2837 -5.04099
LeftHand  -0.244104 0.0205437 5.32207
RightShoulder  6.79316 10.5805 41.9688
RightArm  6.10761 -4.88935 28.2124
RightForeArm  -7.53366 23.1741 5.38473
RightHand  -1.20925 2.85958 -17.136
LeftUpLeg  2.99481 7.12244 7.15142
LeftLeg  6.81156 7.22798 -1.23739
LeftFoot  -9.93098 0.118549 -4.81609
LeftToes  4.36525e-011 -9.98543e-011 1.0027e-011
99
root  71.6005 40.1284 -1.41481 76.8202 -88.733 -75.5701
RightUpLeg  0.694899 -16.3578 -4.34143
RightLeg  15.102 2.68694 2.37725
RightFoot  -6.93056 -0.169956 3.25807
RightToes  5.82063e-011 0 -3.6325e-017
Spine  1.94465 -0.600974 8.32186
Spine1  10.61 -0.375266 -0.994891
HEad  -21.0127 4.53213 -5.14246
LeftShoulder1  9.3137 -13.0442 -49.1371
LeftArm  -8.47665 14.1874 -29.0063
LeftForeArm  26.4494 -27.5618 -4.4995
LeftHand  -0.244104 0.0205437 5.32207
RightShoulder  6.8571 10.6097 42.2979
RightArm  6.26508 -5.99084 28.1284
RightForeArm  -6.73125 21.4078 5.4094
RightHand  -1.18402 2.79871 -16.9087
LeftUpLeg  2.90993 6.84442 6.45372
LeftLeg  7.50222 7.18448 -1.04365
LeftFoot  -10.933 0.0808818 -4.38711
LeftToes  4.36525e-011 -9.98543e-011 1.0027e-011
100
root  71.477 40.0313 -1.07785 68.5645 -88.8825 -67.3062
RightUpLeg  -2.63093 -15.9373 -4.26836
RightLeg  21.1767 2.73895 0.721229
RightFoot  -6.52526 -0.34162 6.85493
RightToes  5.82063e-011 0 -3.6325e-017
Spine  2.57038 -0.485134 7.45578
Spine1  10.1784 -0.331377 -0.949953
HEad  -21.4482 4.37401 -4.89425
LeftShoulder1  9.41387 -13.0872 -49.5367
LeftArm  -5.95914 13.993 -28.8
LeftForeArm  23.942 -24.0881 -3.95278
LeftHand  -0.244104 0.0205437 5.32207
RightShoulder  6.90341 10.6107 42.5999
RightArm  5.3847 -7.15946 28.1006
RightForeArm  -5.09253 19.5653 5.74934
RightHand  -1.20661 3.05 -16.7292
LeftUpLeg  2.6314 6.96224 5.83338
LeftLeg  8.55065 6.89519 -1.03404
LeftFoot  -11.8308 0.0527395 -4.23645
LeftToes  4.36525e-011 -9.98543e-011 1.0027e-011
101
root  71.3736 39.9195 -0.739217 91.5444 -88.9866 -90.5006
RightUpLeg  -7.92544 -11.6393 -4.37317
RightLeg  30.5227 -0.707707 -0.700537
RightFoot  -3.03264 -0.724184 9.67448
RightToes  5.82063e-011 0 -3.6325e-017
Spine  4.2283 -0.309536 6.68288
Spine1  8.88751 -0.152401 -0.885491
HEad  -21.531 4.24491 -4.41496
LeftShoulder1  9.50313 -13.1933 -49.6889
LeftArm  -4.24813 14.1001 -28.6879
LeftForeArm  22.208 -20.0192 -4.00408
LeftHand  -0.244104 0.0205437 5.32207
RightShoulder  6.87615 10.5663 42.5632
RightArm  4.30445 -8.80016 28.5038
RightForeArm  -3.44668 18.0069 6.16023
RightHand  -1.2427 3.27593 -16.7854
LeftUpLeg  2.72217 7.35323 5.51842
LeftLeg  9.5761 6.78907 -1.23621
LeftFoot  -12.865 0.0225901 -4.10593
LeftToes  4.36525e-011 -9.98543e-011 1.0027e-011
102
root  71.2487 39.7861 -0.443013 136.829 -88.7617 -136.355
RightUpLeg  -14.0442 -8.79529 -4.63321
RightLeg  40.9142 -2.45562 -2.5413
RightFoot  2.97433 -1.13537 9.29588
RightToes  5.82063e-011 0 -3.6325e-017
Spine  6.7242 -0.0846134 5.43874
Spine1  7.0038 0.0205718 -0.508543
HEad  -21.3621 4.66939 -3.69997
LeftShoulder1  9.61878 -13.3618 -49.7911
LeftArm  -4.95386 14.5603 -28.308
LeftForeArm  23.3133 -15.728 -5.0526
LeftHand  -0.244104 0.0205437 5.32207
RightShoulder  6.85302 10.555 42.4469
RightArm  3.99516 -10.8599 29.0141
RightForeArm  -2.63241 17.2252 6.4015
RightHand  -1.23492 3.14579 -16.9282
LeftUpLeg  3.41036 7.8142 5.27157
LeftLeg  10.4608 7.09128 -1.52912
LeftFoot  -14.085 -0.0113113 -3.98793
LeftToes  4.36525e-011 -9.98543e-011 1.0027e-011
103
root  71.0362 39.6411 -0.203516 159.331 -88.2893 -159.451
RightUpLeg  -19.4213 -7.35236 -4.79898
RightLeg  48.754 -2.72996 -3.64196
RightFoot  7.81897 -1.10879 6.8603
RightToes  5.82063e-011 0 -3.6325e-017
Spine  8.65277 0.0275367 3.85763
Spine1  5.93792 -0.0592276 0.137785
HEad  -21.5729 5.4923 -3.19607
LeftShoulder1  9.85362 -13.5563 -50.42
LeftArm  -6.13231 14.802 -27.1388
LeftForeArm  25.3877 -11.7379 -6.03572
LeftHand  -0.244104 0.0205437 5.32207
RightShoulder  6.87754 10.5402 42.6568
RightArm  4.54137 -12.8453 29.2443
RightForeArm  -2.72708 17.1916 6.45347
RightHand  -1.25139 3.09041 -17.2513
LeftUpLeg  4.17049 8.17098 4.97789
LeftLeg  11.4219 7.34628 -1.70604
LeftFoot  -15.3762 -0.0507403 -4.05314
LeftToes  4.36525e-011 -9.98543e-011 1.0027e-011
104
root  70.6923 39.5949 0.0120774 153.852 -88.0547 -154.159
RightUpLeg  -23.1813 -7.55735 -4.20406
RightLeg  51.5177 -2.28217 -3.45579
RightFoot  8.90885 -0.832615 4.97931
RightToes  5.82063e-011 0 -3.6325e-017
Spine  9.30921 -0.175336 3.2473
Spine1  5.95672 -0.377189 0.613161
HEad  -22.1788 5.9663 -3.22487
LeftShoulder1  10.1446 -13.7097 -51.4323
LeftArm  -6.51435 14.7837 -25.4634
LeftForeArm  26.9401 -8.43445 -6.50961
LeftHand  -0.244104 0.0205437 5.32207
RightShoulder  6.89346 10.4304 43.1198
RightArm  5.10322 -14.7496 29.3821
RightForeArm  -2.96007 17.2396 6.48734
RightHand  -1.35743 3.46319 -17.916
LeftUpLeg  4.98549 8.20785 4.99531
LeftLeg  11.4382 7.38877 -1.74835
LeftFoot  -15.9872 -0.0691169 -4.06469
LeftToes  4.36525e-011 -9.98543e-011 1.0027e-011
105
root  70.2398 39.6365 0.203885 136.373 -87.6622 -136.53
RightUpLeg  -25.3901 -8.68479 -2.72339
RightLeg  49.0888 -2.23761 -3.11039
RightFoot  6.97921 -0.703933 4.67503
RightToes  5.82063e-011 0 -3.6325e-017
Spine  9.54632 -0.556351 3.82806
Spine1  5.8652 -0.658747 0.601118
HEad  -22.4038 5.92471 -3.52447
LeftShoulder1  10.2781 -13.7552 -51.9603
LeftArm  -6.43921 15.248 -24.36
LeftForeArm  27.5653 -6.1764 -6.45481
LeftHand  -0.244104 0.0205437 5.32207
RightShoulder  6.88555 10.3295 43.3995
RightArm  4.86675 -16.9533 29.8216
RightForeArm  -2.19499 16.6326 6.68926
RightHand  -1.43179 3.69032 -18.4217
LeftUpLeg  5.98932 7.9179 5.44836
LeftLeg  10.4989 7.69855 -1.7098
LeftFoot  -16.0127 -0.0585886 -3.7888
LeftToes  4.36525e-011 -9.98543e-011 1.0027e-011
106
root  69.7151 39.6474 0.340939 128.458 -86.8907 -128.46
RightUpLeg  -26.3533 -9.7357 -0.89589
RightLeg  42.8499 -3.64124 -3.8575
RightFoot  4.18863 -0.672774 5.13453
RightToes  5.82063e-011 0 -3.6325e-017
Spine  10.0817 -0.852477 4.44971
Spine1  5.15929 -0.807199 0.431397
HEad  -21.9751 5.99834 -3.71681
LeftShoulder1  10.1753 -13.6948 -51.6275
LeftArm  -6.89345 16.5685 -24.325
LeftForeArm  27.5324 -5.22663 -6.13251
LeftHand  -0.244104 0.0205437 5.32207
RightShoulder  6.92504 10.4295 43.3321
RightArm  3.73744 -19.2628 30.4996
RightForeArm  0.190185 15.1827 7.07997
RightHand  -1.32783 3.1739 -18.0975
LeftUpLeg  7.17569 7.65768 6.05403
LeftLeg  9.52773 8.32565 -1.72143
LeftFoot  -16.2431 -0.0555583 -3.56986
LeftToes  4.36525e-011 -9.98543e-011 1.0027e-011
107
root  69.118 39.5898 0.42218 127.781 -86.2623 -127.574
RightUpLeg  -26.4833 -10.8264 0.900954
RightLeg  34.2587 -6.35943 -4.86536
RightFoot  2.1741 -0.5692 4.91992
RightToes  5.82063e-011 0 -3.6325e-017
Spine  10.3398 -1.0768 4.50401
Spine1  4.76695 -1.01316 0.592535
HEad  -21.6556 6.484 -3.8361
LeftShoulder1  10.019 -13.628 -51.0451
LeftArm  -7.48321 18.1445 -24.6609
LeftForeArm  26.6383 -5.53525 -5.88965
LeftHand  -0.244104 0.0205437 5.32207
RightShoulder  7.0161 10.664 43.1657
RightArm  2.28413 -21.0462 31.0334
RightForeArm  3.29632 13.4135 7.47758
RightHand  -1.14638 2.34565 -17.3074
LeftUpLeg  8.33345 7.61941 6.55152
LeftLeg  8.80765 8.72269 -1.87578
LeftFoot  -16.8223 -0.0781005 -3.73351
LeftToes  4.36525e-011 -9.98543e-011 1.0027e-011
108
root  68.4266 39.4728 0.458521 127.001 -86.0794 -126.318
RightUpLeg  -26.3913 -13.0794 2.74083
RightLeg  24.6127 -7.30044 -4.02448
RightFoot  1.46157 -0.488704 4.44455
RightToes  5.82063e-011 0 -3.6325e-017
Spine  9.8111 -1.30812 4.29952
Spine1  5.20258 -1.31417 0.862942
HEad  -22.1201 6.83248 -4.0907
LeftShoulder1  9.98055 -13.6216 -50.8705
LeftArm  -7.57852 19.2016 -24.4768
LeftForeArm  25.3889 -6.58233 -5.92181
LeftHand  -0.244104 0.0205437 5.32207
RightShoulder  7.06469 10.772 43.134
RightArm  1.02262 -22.2404 31.253
RightForeArm  5.30237 12.0631 7.70127
RightHand  -1.06844 1.91566 -17.0702
LeftUpLeg  9.15496 7.65635 6.79549
LeftLeg  8.43703 8.7279 -2.04869
LeftFoot  -17.4694 -0.101568 -3.8568
LeftToes  4.36525e-011 -9.98543e-011 1.0027e-011
109
root  67.6385 39.2877 0.445618 127.387 -86.2171 -126.239
RightUpLeg  -26.1694 -14.9444 3.78912
RightLeg  15.8087 -5.15595 -1.26437
RightFoot  1.36182 -0.552482 5.0467
RightToes  5.82063e-011 0 -3.6325e-017
Spine  9.27366 -1.46351 4.12202
Spine1  5.68495 -1.46243 0.782892
HEad  -23.0889 6.6519 -4.41927
LeftShoulder1  10.0021 -13.6147 -50.9989
LeftArm  -7.3918 19.5733 -23.837
LeftForeArm  24.8039 -7.79657 -6.04231
LeftHand  -0.244104 0.0205437 5.32207
RightShoulder  7.0611 10.7306 43.2438
RightArm  -0.242064 -23.2589 31.2482
RightForeArm  5.8055 11.2356 7.74686
RightHand  -1.07609 1.81054 -17.4292
LeftUpLeg  9.93405 7.66641 6.79749
LeftLeg  8.55161 8.70417 -2.12175
LeftFoot  -18.2632 -0.109233 -3.62059
LeftToes  4.36525e-011 -9.98543e-011 1.0027e-011
110
root  66.7809 39.0437 0.376928 131.066 -86.4224 -129.94
RightUpLeg  -25.1152 -10.8504 1.54719
RightLeg  9.81892 -6.02521 1.79403
RightFoot  0.93208 -0.662087 6.20639
RightToes  5.82063e-011 0 -3.6325e-017
Spine  9.60055 -1.47257 3.93032
Spine1  5.60651 -1.37481 0.503149
HEad  -23.8492 6.27529 -4.60562
LeftShoulder1  9.96514 -13.5532 -50.9933
LeftArm  -7.35918 19.4924 -23.3785
LeftForeArm  24.8735 -8.86742 -6.00776
LeftHand  -0.244104 0.0205437 5.32207
RightShoulder  7.08606 10.7379 43.3818
RightArm  -1.86332 -24.0696 31.1648
RightForeArm  6.184 10.3149 7.69173
RightHand  -1.05677 1.6374 -17.5267
LeftUpLeg  11.3865 7.72374 6.80659
LeftLeg  8.7903 8.60603 -2.21851
LeftFoot  -19.3849 -0.148641 -3.7527
LeftToes  4.36525e-011 -9.98543e-011 1.0027e-011
111
root  65.861 38.7892 0.259404 132.13 -86.691 -131.4
RightUpLeg  -24.2772 -7.02401 -0.0975251
RightLeg  7.25179 -6.41835 2.79505
RightFoot  0.778711 -0.640895 6.07871
RightToes  5.82063e-011 0 -3.6325e-017
Spine  10.3092 -1.47387 3.88633
Spine1  5.41116 -1.33227 0.452076
HEad  -24.0351 6.06427 -4.68295
LeftShoulder1  9.90138 -13.5043 -50.8155
LeftArm  -7.55618 19.0954 -23.2476
LeftForeArm  24.7182 -9.57546 -5.88314
LeftHand  -0.244104 0.0205437 5.32207
RightShoulder  7.11675 10.7903 43.4116
RightArm  -3.52445 -24.3249 31.107
RightForeArm  7.32208 8.97759 7.55803
RightHand  -0.999667 1.42036 -17.1107
LeftUpLeg  13.4148 7.95962 7.17411
LeftLeg  8.87528 7.80015 -2.36509
LeftFoot  -20.4694 -0.261707 -4.81158
LeftToes  4.36525e-011 -9.98543e-011 1.0027e-011
